<?xml version="1.0" encoding="UTF-8"?>
<!DOCTYPE svg PUBLIC "-//W3C//DTD SVG 1.1//EN" "http://www.w3.org/Graphics/SVG/1.1/DTD/svg11.dtd">
<!-- Creator: CorelDRAW X6 -->
<svg xmlns="http://www.w3.org/2000/svg" xml:space="preserve" width="105.714mm" height="67.109mm" version="1.1" style="shape-rendering:geometricPrecision; text-rendering:geometricPrecision; image-rendering:optimizeQuality; fill-rule:evenodd; clip-rule:evenodd"
viewBox="0 0 9419 5979"
 xmlns:xlink="http://www.w3.org/1999/xlink">
 <defs>
  <style type="text/css">
   <![CDATA[
    .str1 {stroke:#008DD2;stroke-width:89.1039}
    .str2 {stroke:#F0F0F0;stroke-width:89.1039}
    .str0 {stroke:#FDC90C;stroke-width:89.1039}
    .fil0 {fill:none}
    .fil1 {fill:#008DD2}
    .fil2 {fill:#F0F0F0}
    .fil3 {fill:#1F1D1E;fill-rule:nonzero}
   ]]>
  </style>
 </defs>
 <g id="Layer_x0020_1">
  <metadata id="CorelCorpID_0Corel-Layer"/>
  <line class="fil0 str0" x1="3301" y1="842" x2="2366" y2= "2978" />
  <path class="fil0 str0" d="M3543 982l-93 211m-95 226l-754 1706"/>
  <path class="fil1 str1" d="M2433 1116c-217,268 -716,329 -798,521 -193,453 1882,1237 1323,2016 0,0 -158,-290 -158,-290 -54,-514 -1330,-970 -1451,-1583 -62,-313 264,-514 709,-693 13,-5 655,-317 376,28z"/>
  <path class="fil0 str0" d="M2572 3104c229,181 362,458 360,751 -3,480 -363,882 -840,938"/>
  <path class="fil0 str0" d="M867 3077c-90,96 -216,151 -347,151 -262,0 -475,-213 -475,-475 0,-262 213,-475 475,-475 262,0 475,213 475,475 0,61 -12,121 -35,178"/>
  <path class="fil0 str0" d="M3993 1455c89,-127 234,-203 389,-203 262,0 475,213 475,475 0,262 -213,475 -475,475 -262,0 -475,-213 -475,-475 0,-28 2,-55 7,-82"/>
  <path class="fil0 str0" d="M3332 872c-100,-90 -157,-218 -157,-353 0,-262 213,-475 475,-475 262,0 475,213 475,475 0,262 -213,475 -475,475 -47,0 -94,-7 -139,-21"/>
  <line class="fil0 str0" x1="845" y1="3099" x2="1192" y2= "3327" />
  <path class="fil1 str1" d="M2769 483c121,31 377,36 446,180 42,89 -53,251 -89,380 -39,141 -528,-151 -609,-34 -334,481 -541,111 -400,54 19,-8 80,-45 155,-129 65,-74 81,-229 109,-310 57,-163 133,-205 388,-140z"/>
  <line class="fil0 str0" x1="965" y1="2918" x2="1343" y2= "3150" />
  <path class="fil2 str2" d="M2849 684c35,0 63,30 63,67 0,37 -28,67 -63,67 -35,0 -63,-30 -63,-67 0,-37 28,-67 63,-67z"/>
  <line class="fil0 str0" x1="3451" y1="1193" x2="4013" y2= "1428" />
  <line class="fil0 str0" x1="3343" y1="1447" x2="3913" y2= "1680" />
  <path class="fil1 str1" d="M1224 4496c-5,-12 -135,-325 -168,-335 -34,-10 -163,105 -126,209 50,143 1672,3379 294,126z"/>
  <line class="fil0 str0" x1="1858" y1="4790" x2="1851" y2= "5247" />
  <line class="fil0 str0" x1="2135" y1="4812" x2="2135" y2= "5233" />
  <path class="fil0 str0" d="M1894 4794c-490,-46 -864,-459 -861,-952 1,-195 62,-385 175,-544"/>
  <path class="fil0 str0" d="M1316 3173c179,-177 421,-276 673,-274 144,1 286,35 416,99"/>
  <path class="fil3" d="M3478 3949l103 -16c4,20 13,35 27,45 13,10 32,15 56,15 27,0 47,-5 60,-14 9,-7 13,-16 13,-27 0,-8 -2,-14 -7,-19 -5,-5 -17,-9 -34,-13 -83,-18 -135,-35 -158,-50 -31,-21 -46,-50 -46,-87 0,-34 13,-62 40,-84 27,-23 68,-34 124,-34 53,0 93,9 119,26 26,17 44,43 53,77l-97 18c-4,-15 -12,-27 -24,-35 -12,-8 -28,-12 -50,-12 -27,0 -47,4 -59,11 -8,5 -12,12 -12,21 0,7 3,13 10,19 9,7 41,16 96,29 55,12 93,27 115,45 22,18 32,43 32,76 0,35 -15,66 -45,91 -30,25 -74,38 -132,38 -53,0 -95,-11 -126,-32 -31,-21 -51,-50 -61,-86z"/>
  <path id="1" class="fil3" d="M4032 3525l0 197c33,-39 73,-59 120,-59 24,0 45,4 64,13 19,9 33,20 43,33 10,13 16,28 20,45 4,16 5,42 5,76l0 226 -103 0 0 -203c0,-40 -2,-66 -6,-77 -4,-11 -11,-20 -21,-26 -10,-6 -22,-10 -38,-10 -17,0 -33,4 -46,12 -14,8 -23,21 -30,37 -6,16 -9,41 -9,73l0 193 -103 0 0 -532 103 0z"/>
  <polygon id="2" class="fil3" points="4376,3915 4376,3813 4578,3813 4578,3915 "/>
  <path id="3" class="fil3" d="M4630 3672l94 0 0 53c34,-40 74,-61 121,-61 25,0 46,5 65,15 18,10 33,25 45,46 17,-21 36,-36 55,-46 20,-10 41,-15 63,-15 28,0 53,6 72,17 20,12 34,28 44,51 7,16 11,43 11,80l0 246 -103 0 0 -220c0,-38 -3,-63 -11,-74 -9,-14 -24,-22 -44,-22 -14,0 -28,4 -41,13 -13,9 -22,22 -27,38 -6,17 -8,43 -8,80l0 185 -103 0 0 -211c0,-37 -2,-62 -5,-72 -4,-11 -9,-19 -17,-24 -8,-5 -18,-8 -31,-8 -16,0 -30,4 -43,13 -13,9 -22,21 -27,37 -5,16 -8,42 -8,79l0 187 -103 0 0 -385z"/>
  <path id="4" class="fil3" d="M5303 3620l0 -94 103 0 0 94 -103 0zm0 437l0 -385 103 0 0 385 -103 0z"/>
  <path id="5" class="fil3" d="M5512 4057l0 -532 228 0c57,0 99,5 125,14 26,10 47,26 62,51 16,25 23,52 23,84 0,40 -12,73 -35,99 -24,26 -59,42 -106,49 23,13 43,28 58,45 15,16 36,45 61,86l65 104 -129 0 -78 -116c-28,-41 -47,-67 -57,-78 -10,-11 -21,-18 -33,-22 -12,-4 -30,-6 -55,-6l-22 0 0 222 -109 0zm109 -307l80 0c52,0 84,-2 97,-7 13,-4 23,-12 30,-23 7,-11 11,-24 11,-40 0,-18 -5,-32 -14,-43 -10,-11 -23,-18 -41,-21 -9,-1 -35,-2 -79,-2l-84 0 0 135z"/>
  <path id="6" class="fil3" d="M6260 3525l197 0c45,0 78,3 102,10 31,9 58,25 81,49 22,23 39,52 51,86 12,34 17,76 17,126 0,44 -5,81 -16,113 -13,39 -32,70 -57,94 -19,18 -44,32 -76,42 -24,8 -56,11 -96,11l-203 0 0 -532zm109 90l0 352 80 0c30,0 52,-2 65,-5 18,-4 32,-12 44,-22 12,-10 21,-27 28,-51 7,-24 11,-56 11,-97 0,-41 -4,-73 -11,-95 -7,-22 -17,-39 -31,-51 -13,-12 -30,-21 -50,-25 -15,-3 -45,-5 -88,-5l-48 0z"/>
  <path id="7" class="fil3" d="M7025 3935l103 17c-13,37 -34,66 -62,85 -28,19 -64,29 -107,29 -68,0 -118,-22 -150,-66 -26,-35 -38,-79 -38,-133 0,-64 17,-114 50,-150 34,-36 76,-54 128,-54 58,0 103,19 137,57 33,38 49,96 48,174l-257 0c1,30 9,54 25,71 16,17 35,25 59,25 16,0 30,-4 40,-13 11,-9 19,-23 25,-42zm6 -103c-1,-30 -8,-52 -23,-67 -15,-15 -32,-23 -53,-23 -22,0 -41,8 -55,24 -15,16 -22,38 -21,66l153 0z"/>
  <path id="8" class="fil3" d="M7180 3949l103 -16c4,20 13,35 27,45 13,10 32,15 56,15 27,0 47,-5 60,-14 9,-7 13,-16 13,-27 0,-8 -2,-14 -7,-19 -5,-5 -17,-9 -34,-13 -83,-18 -135,-35 -158,-50 -31,-21 -46,-50 -46,-87 0,-34 13,-62 40,-84 27,-23 68,-34 124,-34 53,0 93,9 119,26 26,17 44,43 53,77l-97 18c-4,-15 -12,-27 -24,-35 -12,-8 -28,-12 -50,-12 -27,0 -47,4 -59,11 -8,5 -12,12 -12,21 0,7 3,13 10,19 9,7 41,16 96,29 55,12 93,27 115,45 22,18 32,43 32,76 0,35 -15,66 -45,91 -30,25 -74,38 -132,38 -53,0 -95,-11 -126,-32 -31,-21 -51,-50 -61,-86z"/>
  <path id="9" class="fil3" d="M7633 3620l0 -94 103 0 0 94 -103 0zm0 437l0 -385 103 0 0 385 -103 0z"/>
  <path id="10" class="fil3" d="M7831 4081l118 14c2,14 6,23 13,28 10,7 25,11 46,11 27,0 47,-4 60,-12 9,-5 16,-14 20,-26 3,-8 5,-24 5,-47l0 -56c-31,42 -70,63 -117,63 -52,0 -94,-22 -124,-66 -24,-35 -36,-78 -36,-129 0,-65 16,-114 47,-148 31,-34 70,-51 117,-51 48,0 88,21 119,63l0 -55 96 0 0 345c0,45 -4,79 -11,102 -7,23 -18,40 -32,53 -14,13 -32,23 -55,30 -23,7 -52,11 -86,11 -66,0 -113,-11 -140,-34 -28,-23 -41,-51 -41,-85 0,-3 0,-8 0,-12zm92 -225c0,41 8,71 24,90 16,19 36,28 59,28 25,0 46,-10 63,-29 17,-19 26,-48 26,-86 0,-40 -8,-69 -25,-89 -16,-19 -37,-29 -63,-29 -25,0 -45,10 -61,28 -16,19 -24,48 -24,87z"/>
  <path id="11" class="fil3" d="M8651 4057l-103 0 0 -196c0,-42 -2,-68 -7,-81 -4,-12 -12,-22 -22,-28 -10,-7 -22,-10 -36,-10 -18,0 -34,5 -48,14 -14,10 -24,23 -29,38 -5,16 -8,45 -8,88l0 174 -103 0 0 -385 95 0 0 57c34,-43 77,-65 129,-65 23,0 44,4 62,12 19,8 33,18 43,31 10,13 16,27 20,43 4,16 6,39 6,68l0 239z"/>
  <path id="12" class="fil3" d="M8980 3935l103 17c-13,37 -34,66 -62,85 -28,19 -64,29 -107,29 -68,0 -118,-22 -150,-66 -26,-35 -38,-79 -38,-133 0,-64 17,-114 50,-150 34,-36 76,-54 128,-54 58,0 103,19 137,57 33,38 49,96 48,174l-257 0c1,30 9,54 25,71 16,17 35,25 59,25 16,0 30,-4 40,-13 11,-9 19,-23 25,-42zm6 -103c-1,-30 -8,-52 -23,-67 -15,-15 -32,-23 -53,-23 -22,0 -41,8 -55,24 -15,16 -22,38 -21,66l153 0z"/>
  <path id="13" class="fil3" d="M9270 4057l-103 0 0 -385 95 0 0 55c16,-26 31,-43 44,-51 13,-8 28,-12 45,-12 23,0 46,6 68,19l-32 89c-17,-11 -33,-17 -48,-17 -14,0 -27,4 -37,12 -10,8 -18,22 -24,43 -6,21 -9,64 -9,129l0 119z"/>
 </g>
</svg>
